<svg preserveAspectRatio="none" overflow="visible" style="display: block;" width="26" height="26" viewBox="0 0 26 26" fill="none" xmlns="http://www.w3.org/2000/svg">
<g id="payload (5) 1">
<path id="Vector" d="M12.8698 21.9765L5.30338 17.6093C5.25719 17.5824 5.21883 17.5438 5.19211 17.4975C5.16539 17.4512 5.15123 17.3987 5.15103 17.3452V10.6015C5.15103 10.4847 5.27798 10.411 5.37955 10.4694L14.1647 15.5425C14.2866 15.6136 14.4415 15.5247 14.4415 15.3825V12.0919C14.4415 11.9599 14.3704 11.8405 14.2586 11.7745L3.68599 5.66808C3.63944 5.64066 3.5864 5.6262 3.53238 5.6262C3.47836 5.6262 3.42532 5.64066 3.37877 5.66808L1.99498 6.46788C1.94879 6.49482 1.91044 6.53336 1.88372 6.57967C1.857 6.62599 1.84283 6.67848 1.84263 6.73195V19.2673C1.84263 19.3765 1.90103 19.478 1.99498 19.5314L12.8495 25.7978C12.896 25.8252 12.9491 25.8396 13.0031 25.8396C13.0571 25.8396 13.1101 25.8252 13.1567 25.7978L22.2719 20.5343C22.3938 20.4632 22.3938 20.288 22.2719 20.2169L19.4282 18.5741C19.3723 18.5417 19.3087 18.5246 19.2441 18.5246C19.1794 18.5246 19.1159 18.5417 19.06 18.5741L13.1745 21.9714C13.1279 21.9988 13.0749 22.0133 13.0209 22.0133C12.9668 22.0133 12.9138 21.9988 12.8672 21.9714L12.8698 21.9765ZM24.0137 6.46788L13.1567 0.201479C13.1101 0.174059 13.0571 0.159598 13.0031 0.159598C12.9491 0.159598 12.896 0.174059 12.8495 0.201479L7.11119 3.51496C6.98931 3.58605 6.98931 3.76124 7.11119 3.83234L9.92955 5.45988C10.0438 5.52589 10.1835 5.52589 10.2977 5.45988L12.8672 3.97707C12.9138 3.94964 12.9668 3.93518 13.0209 3.93518C13.0749 3.93518 13.1279 3.94964 13.1745 3.97707L20.7409 8.34425C20.8348 8.40011 20.8932 8.49913 20.8932 8.60831V15.3876C20.8932 15.5196 20.9643 15.639 21.076 15.705L23.8893 17.33C24.0112 17.4011 24.1661 17.3122 24.1661 17.17V6.73449C24.1662 6.68096 24.1521 6.62834 24.1254 6.58198C24.0986 6.53561 24.0601 6.49713 24.0137 6.47042V6.46788Z" fill="white"/>
</g>
</svg>
